<mxfile host="app.diagrams.net" agent="Mozilla/5.0 (Windows NT 10.0; Win64; x64) AppleWebKit/537.36 (KHTML, like Gecko) Chrome/126.0.0.0 Safari/537.36" version="24.7.6">
  <diagram id="prtHgNgQTEPvFCAcTncT" name="Page-1">
    <mxGraphModel dx="794" dy="430" grid="1" gridSize="10" guides="1" tooltips="1" connect="1" arrows="1" fold="1" page="1" pageScale="1" pageWidth="827" pageHeight="1169" math="0" shadow="0">
      <root>
        <mxCell id="0" />
        <mxCell id="1" parent="0" />
        <mxCell id="xJufFg_3NlwamlWEfg0O-11" style="edgeStyle=orthogonalEdgeStyle;rounded=0;orthogonalLoop=1;jettySize=auto;html=1;exitX=1;exitY=0.5;exitDx=0;exitDy=0;entryX=0.5;entryY=0;entryDx=0;entryDy=0;" edge="1" parent="1" source="xJufFg_3NlwamlWEfg0O-1" target="xJufFg_3NlwamlWEfg0O-3">
          <mxGeometry relative="1" as="geometry" />
        </mxCell>
        <mxCell id="xJufFg_3NlwamlWEfg0O-1" value="Animals" style="rounded=1;whiteSpace=wrap;html=1;fillColor=#1ba1e2;strokeColor=#006EAF;fontColor=#ffffff;fontFamily=Times New Roman;fontStyle=1;fontSize=33;" vertex="1" parent="1">
          <mxGeometry x="460" width="240" height="80" as="geometry" />
        </mxCell>
        <mxCell id="xJufFg_3NlwamlWEfg0O-12" style="edgeStyle=orthogonalEdgeStyle;rounded=0;orthogonalLoop=1;jettySize=auto;html=1;exitX=0;exitY=0.5;exitDx=0;exitDy=0;entryX=0.5;entryY=0;entryDx=0;entryDy=0;" edge="1" parent="1" source="xJufFg_3NlwamlWEfg0O-2" target="xJufFg_3NlwamlWEfg0O-4">
          <mxGeometry relative="1" as="geometry" />
        </mxCell>
        <mxCell id="xJufFg_3NlwamlWEfg0O-13" style="edgeStyle=orthogonalEdgeStyle;rounded=0;orthogonalLoop=1;jettySize=auto;html=1;exitX=0.5;exitY=1;exitDx=0;exitDy=0;entryX=0.5;entryY=0;entryDx=0;entryDy=0;" edge="1" parent="1" source="xJufFg_3NlwamlWEfg0O-2" target="xJufFg_3NlwamlWEfg0O-6">
          <mxGeometry relative="1" as="geometry" />
        </mxCell>
        <mxCell id="xJufFg_3NlwamlWEfg0O-14" style="edgeStyle=orthogonalEdgeStyle;rounded=0;orthogonalLoop=1;jettySize=auto;html=1;exitX=1;exitY=0.5;exitDx=0;exitDy=0;entryX=0.5;entryY=0;entryDx=0;entryDy=0;" edge="1" parent="1" source="xJufFg_3NlwamlWEfg0O-2" target="xJufFg_3NlwamlWEfg0O-7">
          <mxGeometry relative="1" as="geometry" />
        </mxCell>
        <mxCell id="xJufFg_3NlwamlWEfg0O-2" value="Pets" style="rounded=1;whiteSpace=wrap;html=1;fontFamily=Times New Roman;fontSize=30;fillColor=#1ba1e2;fontColor=#ffffff;strokeColor=#006EAF;fontStyle=1" vertex="1" parent="1">
          <mxGeometry x="240" y="110" width="200" height="80" as="geometry" />
        </mxCell>
        <mxCell id="xJufFg_3NlwamlWEfg0O-15" style="edgeStyle=orthogonalEdgeStyle;rounded=0;orthogonalLoop=1;jettySize=auto;html=1;exitX=0;exitY=0.5;exitDx=0;exitDy=0;entryX=0.5;entryY=0;entryDx=0;entryDy=0;" edge="1" parent="1" source="xJufFg_3NlwamlWEfg0O-3" target="xJufFg_3NlwamlWEfg0O-8">
          <mxGeometry relative="1" as="geometry" />
        </mxCell>
        <mxCell id="xJufFg_3NlwamlWEfg0O-16" style="edgeStyle=orthogonalEdgeStyle;rounded=0;orthogonalLoop=1;jettySize=auto;html=1;exitX=0.5;exitY=1;exitDx=0;exitDy=0;entryX=0.5;entryY=0;entryDx=0;entryDy=0;" edge="1" parent="1" source="xJufFg_3NlwamlWEfg0O-3" target="xJufFg_3NlwamlWEfg0O-9">
          <mxGeometry relative="1" as="geometry" />
        </mxCell>
        <mxCell id="xJufFg_3NlwamlWEfg0O-17" style="edgeStyle=orthogonalEdgeStyle;rounded=0;orthogonalLoop=1;jettySize=auto;html=1;exitX=1;exitY=0.5;exitDx=0;exitDy=0;entryX=0.5;entryY=0;entryDx=0;entryDy=0;" edge="1" parent="1" source="xJufFg_3NlwamlWEfg0O-3" target="xJufFg_3NlwamlWEfg0O-5">
          <mxGeometry relative="1" as="geometry" />
        </mxCell>
        <mxCell id="xJufFg_3NlwamlWEfg0O-3" value="Pack_animals" style="rounded=1;whiteSpace=wrap;html=1;fillColor=#1ba1e2;fontColor=#ffffff;strokeColor=#006EAF;fontFamily=Times New Roman;fontSize=30;fontStyle=1" vertex="1" parent="1">
          <mxGeometry x="720" y="110" width="200" height="80" as="geometry" />
        </mxCell>
        <mxCell id="xJufFg_3NlwamlWEfg0O-4" value="Dogs" style="rounded=1;whiteSpace=wrap;html=1;fillColor=#1ba1e2;fontColor=#ffffff;strokeColor=#006EAF;fontFamily=Times New Roman;fontSize=22;" vertex="1" parent="1">
          <mxGeometry x="120" y="270" width="120" height="60" as="geometry" />
        </mxCell>
        <mxCell id="xJufFg_3NlwamlWEfg0O-5" value="Donkeys" style="rounded=1;whiteSpace=wrap;html=1;fillColor=#1ba1e2;fontColor=#ffffff;strokeColor=#006EAF;fontFamily=Times New Roman;fontSize=22;" vertex="1" parent="1">
          <mxGeometry x="920" y="270" width="120" height="60" as="geometry" />
        </mxCell>
        <mxCell id="xJufFg_3NlwamlWEfg0O-6" value="Cats" style="rounded=1;whiteSpace=wrap;html=1;fillColor=#1ba1e2;fontColor=#ffffff;strokeColor=#006EAF;fontFamily=Times New Roman;fontSize=22;" vertex="1" parent="1">
          <mxGeometry x="280" y="270" width="120" height="60" as="geometry" />
        </mxCell>
        <mxCell id="xJufFg_3NlwamlWEfg0O-7" value="Hamsters" style="rounded=1;whiteSpace=wrap;html=1;fillColor=#1ba1e2;fontColor=#ffffff;strokeColor=#006EAF;fontFamily=Times New Roman;fontSize=22;" vertex="1" parent="1">
          <mxGeometry x="440" y="270" width="120" height="60" as="geometry" />
        </mxCell>
        <mxCell id="xJufFg_3NlwamlWEfg0O-8" value="Horses" style="rounded=1;whiteSpace=wrap;html=1;fillColor=#1ba1e2;fontColor=#ffffff;strokeColor=#006EAF;fontFamily=Times New Roman;fontSize=22;" vertex="1" parent="1">
          <mxGeometry x="600" y="270" width="120" height="60" as="geometry" />
        </mxCell>
        <mxCell id="xJufFg_3NlwamlWEfg0O-9" value="Camels" style="rounded=1;whiteSpace=wrap;html=1;fillColor=#1ba1e2;fontColor=#ffffff;strokeColor=#006EAF;fontFamily=Times New Roman;fontSize=22;" vertex="1" parent="1">
          <mxGeometry x="760" y="270" width="120" height="60" as="geometry" />
        </mxCell>
        <mxCell id="xJufFg_3NlwamlWEfg0O-10" style="edgeStyle=orthogonalEdgeStyle;rounded=0;orthogonalLoop=1;jettySize=auto;html=1;exitX=0;exitY=0.5;exitDx=0;exitDy=0;entryX=0.47;entryY=-0.025;entryDx=0;entryDy=0;entryPerimeter=0;" edge="1" parent="1" source="xJufFg_3NlwamlWEfg0O-1" target="xJufFg_3NlwamlWEfg0O-2">
          <mxGeometry relative="1" as="geometry" />
        </mxCell>
      </root>
    </mxGraphModel>
  </diagram>
</mxfile>
